<?xml version="1.0" standalone="no"?>
<!DOCTYPE svg PUBLIC "-//W3C//DTD SVG 20010904//EN"
 "http://www.w3.org/TR/2001/REC-SVG-20010904/DTD/svg10.dtd">
<svg version="1.0" xmlns="http://www.w3.org/2000/svg"
 width="267.000000pt" height="267.000000pt" viewBox="0 0 267.000000 267.000000"
 preserveAspectRatio="xMidYMid meet">
<metadata>
Created by potrace 1.11, written by Peter Selinger 2001-2013
</metadata>
<g transform="translate(0.000000,267.000000) scale(0.100000,-0.100000)"
fill="#000000" stroke="none">
<path d="M0 1335 l0 -1335 1335 0 1335 0 0 1335 0 1335 -1335 0 -1335 0 0
-1335z m1529 1099 c244 -60 461 -248 556 -482 61 -151 72 -387 25 -537 -48
-154 -156 -312 -273 -400 l-66 -50 -1 -76 c0 -118 32 -110 -426 -110 -214 0
-394 1 -401 1 -30 0 -43 32 -43 104 l0 73 -67 54 c-200 160 -304 377 -305 634
-1 142 16 220 74 345 114 247 341 417 613 460 79 12 231 4 314 -16z m222
-1740 c25 -22 24 -59 -1 -84 -19 -19 -33 -20 -417 -20 -355 0 -398 2 -415 17
-31 28 -19 93 19 104 7 2 189 3 404 2 353 -2 393 -4 410 -19z m-73 -180 c28
-19 29 -67 2 -94 -19 -19 -33 -20 -343 -20 -362 0 -367 1 -367 65 0 64 5 65
365 65 274 0 324 -2 343 -16z m-116 -191 c32 -29 15 -102 -25 -103 -7 -1 -104
-1 -217 -1 -201 -1 -205 0 -223 22 -21 26 -16 66 10 87 12 9 74 12 227 12 181
0 212 -2 228 -17z"/>
</g>
</svg>
